<?xml version="1.0" encoding="utf-8"?>
<!-- Generator: Adobe Illustrator 15.1.0, SVG Export Plug-In . SVG Version: 6.00 Build 0)  -->
<!DOCTYPE svg PUBLIC "-//W3C//DTD SVG 1.1//EN" "http://www.w3.org/Graphics/SVG/1.1/DTD/svg11.dtd">
<svg version="1.1" id="Layer_1" xmlns="http://www.w3.org/2000/svg" xmlns:xlink="http://www.w3.org/1999/xlink" x="0px" y="0px"
	 width="56.834px" height="52.667px" viewBox="0 0 56.834 52.667" enable-background="new 0 0 56.834 52.667" xml:space="preserve">
<path fill="#FFE694" d="M43.401,31.39h-3.686c-1.02,0-1.844-0.826-1.844-1.844s0.824-1.844,1.844-1.844h3.686
	c1.018,0,1.844,0.826,1.844,1.844S44.421,31.39,43.401,31.39z M36.16,19.119c-0.721,0.72-1.89,0.72-2.607,0
	c-0.72-0.72-0.72-1.887,0-2.607l2.607-2.606c0.718-0.72,1.887-0.72,2.606,0c0.719,0.72,0.719,1.887,0,2.606L36.16,19.119z
	 M23.123,40.607c-6.109,0-11.062-4.953-11.062-11.061c0-6.11,4.952-11.062,11.062-11.062c6.109,0,11.062,4.952,11.062,11.062
	C34.185,35.654,29.233,40.607,23.123,40.607z M23.123,22.172c-4.073,0-7.375,3.302-7.375,7.375c0,4.071,3.303,7.373,7.375,7.373
	s7.374-3.302,7.374-7.373C30.497,25.474,27.197,22.172,23.123,22.172z M23.123,14.798c-1.018,0-1.844-0.826-1.844-1.844V9.268
	c0-1.018,0.826-1.844,1.844-1.844s1.844,0.826,1.844,1.844v3.687C24.967,13.972,24.14,14.798,23.123,14.798z M10.087,19.119
	l-2.606-2.607c-0.72-0.72-0.72-1.887,0-2.606c0.719-0.72,1.887-0.72,2.606,0l2.607,2.606c0.72,0.72,0.72,1.888,0,2.607
	C11.975,19.837,10.807,19.837,10.087,19.119z M8.374,29.546c0,1.019-0.826,1.844-1.844,1.844H2.843C1.825,31.39,1,30.564,1,29.546
	s0.826-1.844,1.843-1.844H6.53C7.549,27.703,8.374,28.529,8.374,29.546z M10.087,39.975c0.72-0.721,1.888-0.721,2.607,0
	c0.72,0.718,0.72,1.887,0,2.607l-2.607,2.604c-0.719,0.721-1.887,0.721-2.606,0c-0.72-0.718-0.72-1.887,0-2.604L10.087,39.975z
	 M23.123,44.294c1.018,0,1.844,0.825,1.844,1.842v3.688c0,1.02-0.826,1.844-1.844,1.844s-1.844-0.824-1.844-1.844v-3.688
	C21.279,45.12,22.105,44.294,23.123,44.294z M36.16,39.975l2.606,2.607c0.719,0.718,0.719,1.887,0,2.604
	c-0.72,0.721-1.889,0.721-2.606,0l-2.607-2.604c-0.72-0.721-0.72-1.89,0-2.607C34.271,39.254,35.438,39.254,36.16,39.975z"/>
</svg>
