<?xml version="1.0" encoding="utf-8"?>
<!-- Generator: Adobe Illustrator 15.1.0, SVG Export Plug-In . SVG Version: 6.00 Build 0)  -->
<!DOCTYPE svg PUBLIC "-//W3C//DTD SVG 1.1//EN" "http://www.w3.org/Graphics/SVG/1.1/DTD/svg11.dtd">
<svg version="1.1" id="Layer_1" xmlns="http://www.w3.org/2000/svg" xmlns:xlink="http://www.w3.org/1999/xlink" x="0px" y="0px"
	 width="56.834px" height="52.667px" viewBox="0 0 56.834 52.667" enable-background="new 0 0 56.834 52.667" xml:space="preserve">
<path fill="#FFFFFF" d="M23.123,41.544c-6.627,0-11.999-5.372-11.999-11.998c0-6.627,5.372-11.999,11.999-11.999
	c0.755,0,1.491,0.078,2.207,0.212c-0.132,0.576-0.208,1.173-0.208,1.788c0,4.418,3.582,7.999,8,7.999
	c0.614,0,1.212-0.076,1.788-0.208c0.133,0.717,0.211,1.452,0.211,2.208C35.121,36.172,29.749,41.544,23.123,41.544z M21.335,21.754
	c-3.556,0.812-6.211,3.988-6.211,7.792c0,4.417,3.581,7.999,7.999,7.999c3.803,0,6.979-2.655,7.791-6.211
	C26.061,30.43,22.238,26.608,21.335,21.754z"/>
</svg>
