<?xml version="1.0" encoding="utf-8"?>
<!-- Generator: Adobe Illustrator 15.1.0, SVG Export Plug-In . SVG Version: 6.00 Build 0)  -->
<!DOCTYPE svg PUBLIC "-//W3C//DTD SVG 1.1//EN" "http://www.w3.org/Graphics/SVG/1.1/DTD/svg11.dtd">
<svg version="1.1" id="Layer_1" xmlns="http://www.w3.org/2000/svg" xmlns:xlink="http://www.w3.org/1999/xlink" x="0px" y="0px"
	 width="56.834px" height="52.667px" viewBox="0 0 56.834 52.667" enable-background="new 0 0 56.834 52.667" xml:space="preserve">
<path fill="#FFFFFF" d="M16.415,43.972c-8.835,0-15.998-7.162-15.998-15.998c0-8.835,7.163-15.998,15.998-15.998
	c6.004,0,11.229,3.312,13.966,8.203c0.664-0.113,1.338-0.205,2.033-0.205c6.627,0,11.998,5.373,11.998,12
	c0,6.625-5.371,11.998-11.998,11.998C29.639,43.972,19.613,43.972,16.415,43.972z M32.414,39.972c4.418,0,8-3.582,8-7.998
	c0-4.418-3.582-8-8-8c-1.602,0-3.082,0.481-4.334,1.291c-1.23-5.316-5.973-9.29-11.666-9.29c-6.626,0-11.998,5.372-11.998,11.999
	s5.372,11.998,11.998,11.998C20.032,39.972,29.395,39.972,32.414,39.972z"/>
</svg>
