<?xml version="1.0" encoding="utf-8"?>
<!-- Generator: Adobe Illustrator 15.1.0, SVG Export Plug-In . SVG Version: 6.00 Build 0)  -->
<!DOCTYPE svg PUBLIC "-//W3C//DTD SVG 1.1//EN" "http://www.w3.org/Graphics/SVG/1.1/DTD/svg11.dtd">
<svg version="1.1" id="Layer_1" xmlns="http://www.w3.org/2000/svg" xmlns:xlink="http://www.w3.org/1999/xlink" x="0px" y="0px"
	 width="56.834px" height="50.667px" viewBox="0 10.167 56.834 50.667" enable-background="new 0 10.167 56.834 50.667"
	 xml:space="preserve">
<path fill="#FFFFFF" d="M42.816,36.758L42.816,36.758c1.367,1.949,2.178,4.318,2.178,6.883c0,6.625-5.371,11.998-11.998,11.998
	c-2.774,0-12.8,0-15.998,0C8.162,55.639,1,48.477,1,39.641c0-8.835,7.162-15.998,15.998-15.998c2.002,0,3.914,0.375,5.68,1.047l0,0
	c1.636-4.682,6.078-8.047,11.317-8.047c0.756,0,1.492,0.078,2.207,0.212c-0.131,0.575-0.207,1.173-0.207,1.788
	c0,4.418,3.582,7.999,7.998,7.999c0.617,0,1.213-0.076,1.789-0.208c0.133,0.717,0.211,1.453,0.211,2.208
	C45.994,31.775,44.783,34.621,42.816,36.758z M4.999,39.641c0,6.627,5.371,11.998,11.998,11.998c3.616,0,12.979,0,15.999,0
	c4.418,0,7.998-3.582,7.998-7.998c0-4.418-3.58-8-7.998-8c-1.601,0-3.084,0.482-4.334,1.291c-1.231-5.315-5.973-9.29-11.665-9.29
	C10.37,27.642,4.999,33.014,4.999,39.641z M24.548,25.545c0.001,0,0.002,0,0.002,0S24.549,25.545,24.548,25.545z M32.207,20.85
	c-2.899,0.664-5.174,2.91-5.924,5.775l0,0c1.918,1.372,3.522,3.152,4.68,5.22c0.664-0.113,1.337-0.205,2.033-0.205
	c2.617,0,5.033,0.85,7.004,2.271l0,0c0.859-0.979,1.486-2.168,1.787-3.482C36.933,29.525,33.111,25.706,32.207,20.85z"/>
</svg>
