<?xml version="1.0" encoding="utf-8"?>
<!-- Generator: Adobe Illustrator 15.1.0, SVG Export Plug-In . SVG Version: 6.00 Build 0)  -->
<!DOCTYPE svg PUBLIC "-//W3C//DTD SVG 1.1//EN" "http://www.w3.org/Graphics/SVG/1.1/DTD/svg11.dtd">
<svg version="1.1" id="Layer_1" xmlns="http://www.w3.org/2000/svg" xmlns:xlink="http://www.w3.org/1999/xlink" x="0px" y="0px"
	 width="56.834px" height="52.667px" viewBox="0 5.167 56.834 52.667" enable-background="new 0 5.167 56.834 52.667"
	 xml:space="preserve">
<path fill="#FFFFFF" d="M52.994,33.641h-4c-1.104,0-2-0.895-2-2c0-1.104,0.896-1.998,2-1.998h4c1.104,0,2,0.895,2,1.998
	C54.994,32.746,54.099,33.641,52.994,33.641z M45.136,20.329c-0.781,0.781-2.047,0.781-2.828,0c-0.781-0.78-0.781-2.047,0-2.827
	l2.828-2.828c0.781-0.781,2.047-0.781,2.828,0c0.781,0.78,0.781,2.047,0,2.828L45.136,20.329z M42.188,35.936L42.188,35.936
	c1.75,2.086,2.808,4.771,2.808,7.705c0,6.625-5.373,11.998-12,11.998c-2.774,0-12.8,0-15.998,0C8.163,55.639,1,48.477,1,39.641
	c0-8.834,7.163-15.998,15.998-15.998c1.572,0,3.09,0.232,4.523,0.654c2.195-2.827,5.618-4.654,9.474-4.654
	c6.627,0,12,5.373,12,11.998C42.994,33.156,42.701,34.602,42.188,35.936z M4.999,39.641c0,6.627,5.371,11.998,11.998,11.998
	c3.616,0,12.979,0,15.999,0c4.418,0,7.998-3.582,7.998-7.998c0-4.418-3.58-8-7.998-8c-1.601,0-3.084,0.482-4.334,1.291
	c-1.23-5.314-5.973-9.289-11.665-9.289C10.37,27.643,4.999,33.014,4.999,39.641z M30.996,23.643c-2.213,0-4.215,0.898-5.662,2.349
	c2.34,1.436,4.285,3.453,5.629,5.854c0.664-0.113,1.337-0.205,2.033-0.205c2.125,0,4.118,0.559,5.851,1.527l0,0
	c0.096-0.494,0.149-1.004,0.149-1.527C38.996,27.225,35.414,23.643,30.996,23.643z M30.996,15.643c-1.104,0-2-0.895-2-1.999V9.645
	c0-1.105,0.896-2,2-2s2,0.895,2,2v3.999C32.996,14.749,32.101,15.643,30.996,15.643z M16.855,20.329l-2.827-2.827
	c-0.781-0.781-0.781-2.048,0-2.828c0.78-0.781,2.047-0.781,2.827,0l2.828,2.828c0.781,0.78,0.781,2.047,0,2.827
	C18.903,21.11,17.636,21.11,16.855,20.329z"/>
</svg>
