<?xml version="1.0" encoding="utf-8"?>
<!-- Generator: Adobe Illustrator 15.1.0, SVG Export Plug-In . SVG Version: 6.00 Build 0)  -->
<!DOCTYPE svg PUBLIC "-//W3C//DTD SVG 1.1//EN" "http://www.w3.org/Graphics/SVG/1.1/DTD/svg11.dtd">
<svg version="1.1" id="Layer_1" xmlns="http://www.w3.org/2000/svg" xmlns:xlink="http://www.w3.org/1999/xlink" x="0px" y="0px"
	 width="56.834px" height="52.667px" viewBox="0 5.167 56.834 52.667" enable-background="new 0 5.167 56.834 52.667"
	 xml:space="preserve">
<path fill="#FFFFFF" d="M36.997,42.941v-4.381c2.387-1.386,3.998-3.961,3.998-6.92c0-4.418-3.58-8-7.998-8
	c-1.604,0-3.084,0.481-4.334,1.291c-1.232-5.316-5.973-9.29-11.665-9.29C10.371,15.641,5,21.013,5,27.64
	c0,3.549,1.549,6.729,3.998,8.926v4.914C4.221,38.712,1,33.559,1,27.64c0-8.836,7.162-15.998,15.998-15.998
	c6.004,0,11.229,3.312,13.966,8.203c0.664-0.113,1.336-0.205,2.033-0.205c6.627,0,11.998,5.373,11.998,12
	C44.995,36.861,41.653,41.293,36.997,42.941z M14.998,31.641c1.104,0,2,0.896,2,2v3.998c0,1.105-0.896,2-2,2c-1.105,0-2-0.895-2-2
	v-3.998C12.998,32.535,13.893,31.641,14.998,31.641z M14.998,43.639c1.104,0,2,0.896,2,2v3.998c0,1.105-0.896,2-2,2
	c-1.105,0-2-0.895-2-2v-3.998C12.998,44.533,13.893,43.639,14.998,43.639z M22.997,35.639c1.104,0,2,0.896,2,2v4
	c0,1.104-0.896,2-2,2s-1.999-0.896-1.999-2v-4C20.998,36.535,21.893,35.639,22.997,35.639z M22.997,47.639c1.104,0,2,0.896,2,1.998
	v4c0,1.105-0.896,2-2,2s-1.999-0.895-1.999-2v-4C20.998,48.533,21.893,47.639,22.997,47.639z M30.997,31.641c1.104,0,2,0.896,2,2
	v3.998c0,1.105-0.896,2-2,2c-1.105,0-2-0.895-2-2v-3.998C28.997,32.535,29.892,31.641,30.997,31.641z M30.997,43.639
	c1.104,0,2,0.896,2,2v3.998c0,1.105-0.896,2-2,2c-1.105,0-2-0.895-2-2v-3.998C28.997,44.533,29.892,43.639,30.997,43.639z"/>
</svg>
